HIERARCHY
ROOT root     
{
	OFFSET 0.0000 0.0000 0.0000
	CHANNELS 6 Xposition Yposition Zposition Zrotation Yrotation Xrotation
	JOINT pelvis   
	{
		OFFSET 0.0000 0.0000 0.0000
		CHANNELS 3 Zrotation Yrotation Xrotation
		JOINT thorax   
		{
			OFFSET 0.0000 23.0750 -5.0000
			CHANNELS 3 Zrotation Yrotation Xrotation
			JOINT rclavicle
			{
				OFFSET 0.0000 28.0009 0.0000
				CHANNELS 3 Zrotation Yrotation Xrotation
				JOINT rhumerus 
				{
					OFFSET -18.5725 5.5939 0.0000
					CHANNELS 3 Zrotation Yrotation Xrotation
					JOINT rradius  
					{
						OFFSET -24.8459 0.0000 0.0000
						CHANNELS 3 Zrotation Yrotation Xrotation
						JOINT rhand    
						{
							OFFSET -24.5477 0.0000 0.0000
							CHANNELS 3 Zrotation Yrotation Xrotation
							End Site
							{
								OFFSET -8.1826 0.0000 0.0000
							}
						}
					}
				}
			}
			JOINT lclavicle
			{
				OFFSET 0.0000 28.0009 0.0000
				CHANNELS 3 Zrotation Yrotation Xrotation
				JOINT lhumerus 
				{
					OFFSET 18.5725 5.5939 0.0000
					CHANNELS 3 Zrotation Yrotation Xrotation
					JOINT lradius  
					{
						OFFSET 24.8459 0.0000 0.0000
						CHANNELS 3 Zrotation Yrotation Xrotation
						JOINT lhand    
						{
							OFFSET 24.5477 0.0000 0.0000
							CHANNELS 3 Zrotation Yrotation Xrotation
							End Site
							{
								OFFSET 8.1826 0.0000 0.0000
							}
						}
					}
				}
			}
			JOINT head     
			{
				OFFSET 0.0000 35.2030 0.0000
				CHANNELS 3 Zrotation Yrotation Xrotation
				End Site
				{
					OFFSET 0.0000 11.7343 0.0000
				}
			}
		}
		JOINT rfemur   
		{
			OFFSET -8.2817 0.0000 0.0000
			CHANNELS 3 Zrotation Yrotation Xrotation
			JOINT rtibia   
			{
				OFFSET 0.0000 -43.3627 0.0000
				CHANNELS 3 Zrotation Yrotation Xrotation
				JOINT rfoot    
				{
					OFFSET 0.0000 -38.2947 0.0000
					CHANNELS 3 Zrotation Yrotation Xrotation
					JOINT rtoes    
					{
						OFFSET 0.0000 0.0000 16.6054
						CHANNELS 3 Zrotation Yrotation Xrotation
						End Site
						{
							OFFSET 0.0000 0.0000 5.5351
						}
					}
				}
			}
		}
		JOINT lfemur   
		{
			OFFSET 8.2817 0.0000 0.0000
			CHANNELS 3 Zrotation Yrotation Xrotation
			JOINT ltibia   
			{
				OFFSET 0.0000 -43.3627 0.0000
				CHANNELS 3 Zrotation Yrotation Xrotation
				JOINT lfoot    
				{
					OFFSET 0.0000 -38.2947 0.0000
					CHANNELS 3 Zrotation Yrotation Xrotation
					JOINT ltoes    
					{
						OFFSET 0.0000 0.0000 16.6054
						CHANNELS 3 Zrotation Yrotation Xrotation
						End Site
						{
							OFFSET 0.0000 0.0000 5.5351
						}
					}
				}
			}
		}
	}
}
MOTION
Frames: 9
Frame Time: .0333333
7.8497 86.018 -0.2764 11.5169 83.0605 26.4576 0 -0 0 -6.62085 -1.6101 -9.39882 27.1965 -5.80391 -5.796e-06 48.1992 18.3997 8.73368 -3.6464e-06 85.0558 -3.34429e-06 3.39415 6.37122 0.188997 -24.8344 11.2697 -2.35464e-05 -37.7804 -6.22647 -1.94051 0 -43.9979 0 10.6681 1.7059 0.1593 17.8698 19.7383 8.05639 -8.05863 -8.91037 -13.7668 -0 -0 58.7867 1.25632e-05 -5.39449 18.4459 -1.71144 -1.35745e-05 -66.3959 -4.39728 2.57224 -21.4111 -0 -0 24.1956 -2.97478e-06 9.42451 -1.18523 -0.196697 1.73851e-06 -32.67 
8.8833 86.196 -0.2118 10.5547 83.4217 25.526 0 -0 0 -6.1903 -2.32309 -9.49007 27.3487 -6.07019 3.06996e-06 48.0533 17.4553 8.10342 -0 85.4983 -0 4.2321 5.92503 0.219099 -24.8927 11.2501 -4.9171e-05 -38.4227 -6.48761 -0.639303 3.33512e-07 -45.5336 -7.94688e-07 9.74823 1.67836 0.143095 18.9913 20.5991 8.9026 -7.5477 -9.15935 -14.9432 -0 -0 59.4003 5.3073e-06 -6.06987 17.1179 -1.79274 -6.30746e-06 -65.0248 -4.208 2.71319 -20.3764 -0 -0 23.4152 2.69877e-07 9.16882 -0.991409 -0.160003 -8.59185e-07 -32.7983 
9.9033 86.363 -0.1437 9.75456 83.8535 24.76 0 -0 0 -5.76405 -3.0877 -9.54472 27.4989 -6.35213 -3.77575e-05 47.8546 16.5467 7.45378 -2.04784e-06 85.9264 -2.19886e-06 4.96175 5.548 0.240604 -24.9195 11.2033 9.2802e-06 -39.0361 -6.77394 0.654422 0 -47.1024 0 8.99888 1.57276 0.123799 20.0066 21.3491 9.61626 -7.0335 -9.497 -16.1231 -0 -0 59.8704 1.86463e-05 -6.48791 15.9248 -1.78721 1.98656e-06 -63.7191 -4.01878 2.83523 -19.3782 -0 -0 22.6495 -4.18513e-07 8.88668 -0.832101 -0.130102 6.03783e-07 -33.2077 
10.913 86.519 -0.0731 9.09467 84.3277 24.1308 0 -0 0 -5.3467 -3.88052 -9.55205 27.6465 -6.64511 4.59541e-05 47.6061 15.6733 6.78431 -0 86.3148 -0 5.5493 5.25395 0.254803 -24.9137 11.1304 -8.19921e-05 -39.631 -7.09221 1.92651 0 -48.7022 0 8.43085 1.40501 0.103601 20.8952 21.9926 10.1829 -6.52105 -9.9227 -17.302 -0 -0 60.2118 2.40682e-05 -6.71494 14.8576 -1.7293 1.08046e-05 -62.6002 -3.82699 2.92722 -18.3992 -0 -0 21.8903 -1.80909e-07 8.59317 -0.691999 -0.104599 1.82911e-07 -33.9002 
11.917 86.661 0.0061 8.26461 84.833 23.3081 0 -0 0 -4.90703 -4.67414 -9.49178 27.7682 -6.92504 6.51984e-05 47.3347 14.8088 6.07196 -0 86.6827 -0 5.99841 5.04658 0.264607 -24.8775 11.0095 5.84246e-05 -40.2198 -7.412 3.14678 0 -50.3473 0 8.03296 1.18564 0.0832957 21.6352 22.5334 10.5957 -5.98181 -10.4155 -18.4575 -0 -0 60.419 2.82904e-05 -6.82928 13.898 -1.64772 -6.14325e-06 -61.9037 -3.60479 3.02118 -17.4194 -0 -0 21.1484 -4.41809e-07 8.2659 -0.563098 -0.0818006 -5.24635e-07 -34.8685 
12.916 86.79 0.0905 7.25771 85.3546 22.2908 0 -0 0 -4.46121 -5.45278 -9.37381 27.8764 -7.20252 2.07905e-06 47.0324 13.9735 5.33835 -0 87.0069 -0 6.28718 4.91996 0.270395 -24.8164 10.8731 -3.12717e-06 -40.7963 -7.77455 4.32636 0 -52.0121 0 7.78671 0.939601 0.0639 22.2283 22.9829 10.8579 -5.42796 -10.9663 -19.607 -0 -0 60.5098 6.64617e-07 -6.88023 12.9968 -1.55441 5.79501e-06 -61.4543 -3.36053 3.09146 -16.4448 -0 -0 20.4249 -1.25243e-07 7.93443 -0.416194 -0.0579998 6.41357e-07 -36.0281 
13.912 86.904 0.183 5.78328 85.8595 20.7892 0 -0 0 -3.99493 -6.19966 -9.19819 27.9627 -7.47093 5.29226e-05 46.7135 13.1641 4.5813 -4.93259e-06 87.2774 -5.17136e-06 6.43066 4.86028 0.273202 -24.7361 10.7285 -2.71287e-06 -41.3613 -8.18287 5.45999 4.60506e-07 -53.697 -9.09746e-07 7.65898 0.681905 0.0456002 22.6714 23.3482 10.9777 -4.84445 -11.5483 -20.7442 -0 -0 60.4827 -1.33196e-06 -6.91772 12.1121 -1.45833 -1.73345e-05 -61.268 -3.08118 3.15339 -15.4748 -0 -0 19.7337 5.55918e-07 7.593 -0.2382 -0.0317003 3.11769e-08 -37.2994 
14.905 87.005 0.2837 3.58175 86.3589 18.5426 0 -0 0 -3.50865 -6.90313 -8.97927 28.0236 -7.72521 -3.27036e-05 46.3911 12.3738 3.8005 -1.36738e-05 87.5189 -1.37892e-05 6.44879 4.84858 0.273292 -24.6387 10.5795 -2.3175e-05 -41.9102 -8.62966 6.54177 0 -55.3958 0 7.61195 0.427403 0.0283998 22.9707 23.6381 10.9704 -4.22887 -12.1352 -21.8765 -0 -0 60.3345 -4.3146e-06 -6.97316 11.2142 -1.36262 -1.24272e-05 -61.3333 -2.76658 3.20842 -14.5194 -0 -0 19.0922 -2.55103e-08 7.24862 -0.0170004 -0.00220004 -8.00021e-09 -38.5835 
15.894 87.092 0.3927 0.385683 86.8122 15.3 0 -0 0 -3.0048 -7.55663 -8.7338 28.0573 -7.96364 3.59635e-05 46.0772 11.6012 2.99828 -0 87.7072 -0 6.36715 4.86398 0.270701 -24.5284 10.4343 6.90232e-05 -42.4368 -9.11346 7.57137 0 -57.1043 0 7.60764 0.187905 0.0125002 23.1407 23.8553 10.8545 -3.58271 -12.7 -23.0099 -0 -0 60.0579 -4.34977e-06 -7.05923 10.2783 -1.26579 -3.22518e-06 -61.5282 -2.42067 3.25886 -13.595 -0 -0 18.5162 -2.77563e-07 6.90787 0.251505 0.0305001 -2.00088e-07 -39.7946 
